<svg xmlns="http://www.w3.org/2000/svg" width="20.001" height="18.998" viewBox="0 0 20.001 18.998">
  <g id="Group_5669" data-name="Group 5669" transform="translate(-16.998 -450)">
    <path id="Op_component_1" data-name="Op component 1" d="M623.75,1949h-12.03a1.752,1.752,0,0,1-1.721-1.777,7.74,7.74,0,1,1,15.472,0A1.751,1.751,0,0,1,623.75,1949Zm-6.015-8.316a6.433,6.433,0,0,0-6.307,6.539.3.3,0,0,0,.292.31h12.03a.3.3,0,0,0,.292-.31A6.433,6.433,0,0,0,617.735,1940.682Zm0-2.248a4.22,4.22,0,1,1,4.075-4.217A4.153,4.153,0,0,1,617.735,1938.434Zm0-6.968a2.752,2.752,0,1,0,2.648,2.751A2.7,2.7,0,0,0,617.735,1931.467Z" transform="translate(-593 -1480)" fill="#fff"/>
    <path id="Op_component_2" data-name="Op component 2" d="M628.508,1945.983h-3.83v-1.467h3.83a.068.068,0,0,0,.062-.072,4.8,4.8,0,0,0-4.7-4.877,4.606,4.606,0,0,0-2.987,1.113l-.914-1.127a6.015,6.015,0,0,1,3.9-1.453,6.247,6.247,0,0,1,6.131,6.344A1.517,1.517,0,0,1,628.508,1945.983Z" transform="translate(-593 -1480)" fill="#fff"/>
    <path id="Op_component_3" data-name="Op component 3" d="M623.991,1937.662a3.279,3.279,0,1,1,3.168-3.277A3.228,3.228,0,0,1,623.991,1937.662Zm0-5.086a1.811,1.811,0,1,0,1.739,1.809A1.778,1.778,0,0,0,623.991,1932.576Z" transform="translate(-593 -1480)" fill="#fff"/>
  </g>
</svg>
