<svg xmlns="http://www.w3.org/2000/svg" width="43.64" height="43.64" viewBox="0 0 43.64 43.64">
  <path id="apartment_FILL0_wght400_GRAD0_opsz48" d="M158.667,202.307V168.668h10v-10h23.638v20h10v23.638H183.7v-10h-6.425v10Zm3.637-3.637h6.364v-6.364H162.3Zm0-10h6.364v-6.364H162.3Zm0-10h6.364V172.3H162.3Zm10,10h6.364v-6.364H172.3Zm0-10h6.364V172.3H172.3Zm0-10h6.364V162.3H172.3Zm10,20h6.364v-6.364h-6.364Zm0-10h6.364V172.3h-6.364Zm0-10h6.364V162.3h-6.364Zm10,30h6.364v-6.364h-6.364Zm0-10h6.364v-6.364h-6.364Z" transform="translate(-158.667 -158.667)" fill="#fff"/>
</svg>
