<svg xmlns="http://www.w3.org/2000/svg" xmlns:xlink="http://www.w3.org/1999/xlink" width="34.52" height="40.5" viewBox="0 0 34.52 40.5">
  <defs>
    <clipPath id="clip-path">
      <rect id="Rectangle_119" data-name="Rectangle 119" width="34.52" height="40.5" fill="#404040"/>
    </clipPath>
  </defs>
  <g id="Group_4812" data-name="Group 4812" clip-path="url(#clip-path)">
    <path id="Path_73" data-name="Path 73" d="M37.035,80.978H29.461c-.69,0-1.229.292-1.048,1.109a4.913,4.913,0,0,0,9.669,0c.181-.817-.358-1.109-1.047-1.109" transform="translate(-15.989 -45.624)" fill="#404040"/>
    <path id="Path_74" data-name="Path 74" d="M33.21,29.859H31.6V17.974h0A14.847,14.847,0,0,0,19.443,3.257V2.183a2.183,2.183,0,1,0-4.366,0V3.257A14.855,14.855,0,0,0,2.921,18.117V29.859H1.31a1.31,1.31,0,1,0,0,2.62h31.9a1.31,1.31,0,1,0,0-2.62M5.54,18.117C5.54,11.271,10.8,5.7,17.259,5.7s11.72,5.569,11.72,12.414V29.859H5.54Z" transform="translate(0 0)" fill="#404040"/>
  </g>
</svg>
