<svg xmlns="http://www.w3.org/2000/svg" width="54" height="48" viewBox="0 0 54 48">
  <path id="directions_car_FILL0_wght400_GRAD0_opsz48" d="M12,51.7v4.05A2.18,2.18,0,0,1,9.75,58H8.25A2.18,2.18,0,0,1,6,55.75V31.45l6.375-19.2a3.3,3.3,0,0,1,1.237-1.65A3.394,3.394,0,0,1,15.6,10H50.4a3.394,3.394,0,0,1,1.988.6,3.3,3.3,0,0,1,1.237,1.65L60,31.45v24.3A2.18,2.18,0,0,1,57.75,58H56.175a2.063,2.063,0,0,1-1.575-.637A2.26,2.26,0,0,1,54,55.75V51.7Zm.225-24.75h41.55L49.65,14.5H16.35ZM10.5,31.45v0Zm7.95,12a3.858,3.858,0,0,0,2.888-1.2A3.956,3.956,0,0,0,22.5,39.4a4.176,4.176,0,0,0-1.163-2.963A3.8,3.8,0,0,0,18.45,35.2a4.225,4.225,0,0,0-4.2,4.2,3.8,3.8,0,0,0,1.238,2.888A4.176,4.176,0,0,0,18.45,43.45Zm29.175,0a4.106,4.106,0,0,0,2.962-1.2,3.836,3.836,0,0,0,1.237-2.85,4.225,4.225,0,0,0-4.2-4.2,3.8,3.8,0,0,0-2.888,1.237A4.176,4.176,0,0,0,43.575,39.4a3.858,3.858,0,0,0,1.2,2.888A3.956,3.956,0,0,0,47.625,43.45ZM10.5,47.2h45V31.45h-45Z" transform="translate(-6 -10)" fill="#333"/>
</svg>
