<svg xmlns="http://www.w3.org/2000/svg" width="76.667" height="34.843" viewBox="0 0 76.667 34.843">
  <g id="Group_5170" data-name="Group 5170" transform="translate(-774.283 -5503.625)">
    <g id="Group_5170-2" data-name="Group 5170" transform="translate(774.283 5503.625)">
      <path id="Path_82" data-name="Path 82" d="M782.752,5533.9a6.754,6.754,0,0,1-3.393-1.007c-6.622-3.838-5.079-9.856-4.5-12.122.044-.172.085-.331.119-.477a8.551,8.551,0,0,1,6.8-6.548c6.514-.413,14.243-1.557,16.824-3.184,4.441-2.8,8-4.954,9.318-5.75a7.88,7.88,0,0,1,3.618-1.121,49.366,49.366,0,0,1,21.261,3.719,94.291,94.291,0,0,1,14.438,7.357,7.847,7.847,0,0,1,3.329,4.638,34.063,34.063,0,0,1,.348,6.676,7.089,7.089,0,0,1-5.589,6.274l-6.577,1.369a2.714,2.714,0,0,1-.555.058l-54.672.056A4.957,4.957,0,0,1,782.752,5533.9Zm-.46-5.369h0Zm0,0h0Zm0,0h0Zm0,0h0Zm0,0h0Zm0,0h0Zm.005-9.325a3.336,3.336,0,0,0-2,2.34c-.042.179-.092.378-.147.591-.661,2.576-.883,4.387,1.94,6.023a2.146,2.146,0,0,0,.6.259,2.711,2.711,0,0,1,.526-.051l54.671-.056,6.3-1.311a1.579,1.579,0,0,0,1.25-1.388,34.763,34.763,0,0,0-.205-4.876,2.371,2.371,0,0,0-1.006-1.374,88.715,88.715,0,0,0-13.583-6.9,43.7,43.7,0,0,0-18.818-3.293h0a2.344,2.344,0,0,0-1.1.343c-1.309.787-4.825,2.918-9.223,5.691C797.147,5517.948,786.78,5518.9,782.313,5519.2Zm-.189.012h0Zm29.564-12.785h0Z" transform="translate(-774.283 -5503.625)" fill="#333"/>
    </g>
    <g id="Group_5171" data-name="Group 5171" transform="translate(785.049 5526.071)">
      <path id="Path_83" data-name="Path 83" d="M795.735,5533.043a4.829,4.829,0,1,1-4.829-4.829,4.83,4.83,0,0,1,4.829,4.829" transform="translate(-786.077 -5528.214)" fill="#fff"/>
    </g>
    <g id="Group_5172" data-name="Group 5172" transform="translate(782.311 5523.333)">
      <path id="Path_84" data-name="Path 84" d="M790.644,5540.349a7.568,7.568,0,1,1,7.568-7.566A7.575,7.575,0,0,1,790.644,5540.349Zm0-9.658a2.091,2.091,0,1,0,2.09,2.092A2.093,2.093,0,0,0,790.644,5530.691Z" transform="translate(-783.077 -5525.214)" fill="#1a1818"/>
    </g>
    <g id="Group_5173" data-name="Group 5173" transform="translate(827.057 5526.071)">
      <path id="Path_85" data-name="Path 85" d="M841.753,5533.043a4.829,4.829,0,1,1-4.829-4.829,4.83,4.83,0,0,1,4.829,4.829" transform="translate(-832.095 -5528.214)" fill="#fff"/>
    </g>
    <g id="Group_5174" data-name="Group 5174" transform="translate(824.318 5523.333)">
      <path id="Path_86" data-name="Path 86" d="M836.663,5540.349a7.568,7.568,0,1,1,7.568-7.566A7.575,7.575,0,0,1,836.663,5540.349Zm0-9.658a2.091,2.091,0,1,0,2.09,2.092A2.093,2.093,0,0,0,836.663,5530.691Z" transform="translate(-829.095 -5525.214)" fill="#1a1818"/>
    </g>
  </g>
</svg>
