<svg width="54" height="47" viewBox="0 0 54 47" fill="none" xmlns="http://www.w3.org/2000/svg">
<path fill-rule="evenodd" clip-rule="evenodd" d="M0 34.019H25.765V36.348H0V34.019ZM43.291 3.106H40.254C40.122 3.106 40.054 3.221 40.021 3.35L39.582 4.991C39.547 5.12 39.687 5.235 39.815 5.235H42.1C41.9048 5.83758 41.8037 6.46662 41.8 7.1C41.7988 8.62026 42.3974 10.0796 43.466 11.161C43.9917 11.6938 44.618 12.1168 45.3085 12.4055C45.999 12.6943 46.74 12.843 47.4885 12.843C48.237 12.843 48.978 12.6943 49.6685 12.4055C50.359 12.1168 50.9853 11.6938 51.511 11.161C52.5785 10.0791 53.176 8.61984 53.174 7.1C53.1962 5.5534 52.6064 4.06068 51.533 2.947C51.0045 2.39874 50.3725 1.96085 49.6735 1.65873C48.9745 1.35661 48.2224 1.19627 47.461 1.187C46.6692 1.19149 45.8874 1.36522 45.1683 1.69653C44.4491 2.02785 43.809 2.50909 43.291 3.108V3.106ZM52.691 32.036L54 43.89C53.965 47.648 48.955 48.012 48.41 44.915L47.456 33.442L46.143 44.258C44.961 48.458 40.087 46.889 40.553 43.69L41.388 38.81L42.1 30.61C40.922 27.42 41.955 25.286 41.885 21.551C39.771 23.711 38.132 25.287 34.92 25.388C33.905 25.348 32.283 25.273 31.268 25.157C30.029 25.015 29.159 25.068 28.381 23.937C28.1288 23.5962 27.9804 23.1897 27.9538 22.7665C27.9271 22.3433 28.0233 21.9215 28.2308 21.5517C28.4383 21.1819 28.7483 20.88 29.1233 20.6822C29.4984 20.4845 29.9227 20.3993 30.345 20.437C32.103 20.597 35.337 21 36.545 19.496C37.802 18.285 38.773 16.59 40.412 16.053C49.64 13.027 51.93 14.212 52.712 17.544C53.0329 20.9058 53.1794 24.282 53.151 27.659C53.162 29.1302 53.0148 30.5983 52.712 32.038L52.691 32.036ZM27.778 11.876V19.214C27.4568 19.4662 27.1753 19.7652 26.943 20.101C26.7129 20.4484 26.5394 20.8302 26.429 21.232L24.016 19.777L24.086 9.507L27.777 11.858L27.778 11.876ZM29.325 8.54L32.99 10.647L28.222 11.255L24.882 9.13L29.325 8.54ZM28.538 18.74V11.979L33.508 11.34L33.671 16.131L35.429 14.931L37.187 15.925L36.827 10.912L39.806 10.57V14.2C38.7094 14.8367 37.7575 15.695 37.011 16.72C36.6821 17.1288 36.3316 17.5197 35.961 17.891L35.838 18.024C35.069 18.938 32.432 18.694 30.762 18.539C30.085 18.477 31.641 18.61 30.415 18.503C29.7768 18.3975 29.1216 18.4856 28.534 18.756L28.538 18.74ZM36.338 10.2L32.779 8.079L34.279 7.928L38.8 9.933L36.338 10.2ZM22.667 32.972V0H3.1V32.972H22.667ZM6.535 15.972L8.609 15.036V21.567L6.535 20.98V15.972Z" fill="white"/>
</svg>
