<svg xmlns="http://www.w3.org/2000/svg" xmlns:xlink="http://www.w3.org/1999/xlink" width="50.162" height="64" viewBox="0 0 50.162 64">
  <defs>
    <clipPath id="clip-path">
      <rect id="Rectangle_113" data-name="Rectangle 113" width="50.162" height="64" fill="#333"/>
    </clipPath>
  </defs>
  <g id="entrance-door_1" data-name="entrance-door 1" clip-path="url(#clip-path)">
    <path id="Path_64" data-name="Path 64" d="M42.955,0h6.969a.243.243,0,0,1,.24.24V63.76a.243.243,0,0,1-.24.24H42.955a.243.243,0,0,1-.24-.24V29.208l-3.22,1.271-.45.156c-2.593.917-4.47,1.578-7.758.771a.265.265,0,0,1-.068-.026,11.909,11.909,0,0,1-4.653-3.333l-.173-.177L24.924,37.2a34.475,34.475,0,0,0,3.864,2.01c3.764,1.75,6.859,3.188,7.523,9.078a18.458,18.458,0,0,1,.005,3.135v.016c-.011.156-.016.328-.037.729l-.46,11.411a.41.41,0,0,1-.418.391l-5.819.016a.407.407,0,0,1-.408-.406c.063-3.932.178-8.052.382-11.979l.031-.531a15.974,15.974,0,0,0,.031-1.713,3.937,3.937,0,0,0-.335-1.432l-.057-.12c-.235-.51-.45-.979-.774-1.13a29.2,29.2,0,0,0-2.823-1.047c-1.328-.438-2.813-.875-4.12-1.245-.962,3.167-2.264,7-3.66,10.641a89.218,89.218,0,0,1-3.8,8.719.4.4,0,0,1-.382.219l-6.111.031a.4.4,0,0,1-.408-.4.372.372,0,0,1,.031-.151C8.4,60.443,9.847,56.552,11.232,52.6c1.417-4.047,2.776-8.172,3.78-11.484a10.521,10.521,0,0,1-1.553-2.438,5.439,5.439,0,0,1-.423-3.213l2.1-11.281-.12-.005a4.22,4.22,0,0,0-2.028.245,8.082,8.082,0,0,0-2.541,2.2c-.34.38-.69.776-1.093,1.182l-.026.026c-.3.307-.612.625-.9.922l-3.7,3.724a.407.407,0,0,1-.575,0L.107,28.255a.406.406,0,0,1,.01-.568l3.7-3.719c.319-.323.591-.6.857-.87l.042-.042a20.336,20.336,0,0,1,4.757-4.24,12.528,12.528,0,0,1,7.016-1.344h.005c1.124.016,2.452.135,3.545.24.507.047.962.089,1.354.115,5.312.349,7.8,3.13,9.734,5.3a8.851,8.851,0,0,0,2.389,2.161c.376.177.967-.073,1.642-.354a9.675,9.675,0,0,1,1.291-.474l.58-.219c.162-.062.272-.1.335-.125l5.354-1.844V.24A.243.243,0,0,1,42.955,0ZM21.824,3.339a6.381,6.381,0,0,1,8.093,3.953,6.346,6.346,0,0,1-3.968,8.062A6.382,6.382,0,0,1,17.856,11.4a6.346,6.346,0,0,1,3.968-8.063Zm22.5,17.344h1.61v7.682H44.32Z" transform="translate(-0.002)" fill="#333" fill-rule="evenodd"/>
  </g>
</svg>
