<svg xmlns="http://www.w3.org/2000/svg" width="48" height="47.998" viewBox="0 0 48 47.998">
  <g id="Group_97" data-name="Group 97" transform="translate(0 -0.013)">
    <path id="Path_45" data-name="Path 45" d="M48,369.048a1.757,1.757,0,0,0-.854-1.575l-7.509-3.9-7.047,9.858a1.234,1.234,0,0,1-1.977.161,1.676,1.676,0,0,1-.282-.412l-4.1-7.274a11.826,11.826,0,0,1-4.42-.079l-4.14,7.353a1.681,1.681,0,0,1-.282.412,1.234,1.234,0,0,1-1.977-.161l-7.192-10.06-7.4,4.121a1.605,1.605,0,0,0-.817,1.458L0,378.657a1.584,1.584,0,0,0,1.406,1.716H46.594A1.584,1.584,0,0,0,48,378.657Z" transform="translate(0 -332.362)" fill="#fff" fill-rule="evenodd"/>
    <path id="Path_46" data-name="Path 46" d="M119.391,337.146l-3.326,1.518,6.658,7.633,3.206-4.667q-.153-.06-.305-.124a17.694,17.694,0,0,1-5.718-3.823Q119.643,337.421,119.391,337.146Z" transform="translate(-105.669 -306.816)" fill="#fff" fill-rule="evenodd"/>
    <path id="Path_47" data-name="Path 47" d="M320.226,342.871l-3.025-1.287-.03.03a17.681,17.681,0,0,1-6.452,4.116l3.09,4.5Z" transform="translate(-282.832 -310.769)" fill="#fff" fill-rule="evenodd"/>
    <path id="Path_48" data-name="Path 48" d="M103.873,12.137h21.982l1.42-3.827a2.128,2.128,0,0,0,.092-.284,1.965,1.965,0,0,0-.736-2.185L115.265.111a.87.87,0,0,0-.8,0L103.1,5.841h0a1.064,1.064,0,0,0-.161.1,2.114,2.114,0,0,0-.5,2.313Zm10.991-7.778c.665,0,1.208.771,1.208,1.716s-.543,1.716-1.208,1.716-1.208-.771-1.208-1.716S114.2,4.359,114.864,4.359Z" transform="translate(-90.591 0)" fill="#fff" fill-rule="evenodd"/>
    <path id="Path_49" data-name="Path 49" d="M133.8,137.966l-.977-1.976h-20.8l-.976,2.034a2.194,2.194,0,0,0,.377,2.46c2.957,2.477,7.846,3.514,11.374,3.514a15.961,15.961,0,0,0,10.63-3.555A2.207,2.207,0,0,0,133.8,137.966Z" transform="translate(-98.16 -123.674)" fill="#fff" fill-rule="evenodd"/>
    <path id="Path_50" data-name="Path 50" d="M155.67,227.346a15.189,15.189,0,0,0,3.649-10.013v-1.978a24.533,24.533,0,0,1-4.339,1.463,32.761,32.761,0,0,1-7.613.844,38.908,38.908,0,0,1-8.831-1.064,27.95,27.95,0,0,1-4.068-1.3v2.038a15.189,15.189,0,0,0,3.649,10.013,11.334,11.334,0,0,0,17.554,0Z" transform="translate(-122.684 -196.801)" fill="#fff" fill-rule="evenodd"/>
  </g>
</svg>
