<svg width="53" height="60" viewBox="0 0 53 60" fill="none" xmlns="http://www.w3.org/2000/svg">
<mask id="mask0_2_26" style="mask-type:luminance" maskUnits="userSpaceOnUse" x="0" y="0" width="53" height="60">
<path d="M52.33 0H0V60H52.33V0Z" fill="white"/>
</mask>
<g mask="url(#mask0_2_26)">
<path d="M34.135 0C34.8599 0.182102 35.5694 0.420835 36.257 0.714C37.5316 1.37049 38.566 2.41302 39.2126 3.69264C39.8591 4.97227 40.0847 6.4235 39.857 7.839C39.6557 9.05307 39.1259 10.1889 38.3251 11.1233C37.5243 12.0578 36.483 12.7552 35.3141 13.14C34.1451 13.5248 32.8932 13.5824 31.6939 13.3064C30.4946 13.0304 29.3937 12.4314 28.5105 11.5744C27.6274 10.7173 26.9957 9.6349 26.6838 8.44441C26.372 7.25393 26.392 6.0008 26.7416 4.82086C27.0912 3.64091 27.7571 2.57917 28.6671 1.75069C29.5771 0.922219 30.6965 0.358626 31.904 0.121C31.997 0.101 32.104 0.116 32.144 0H34.135Z" fill="white"/>
<path d="M34.011 41.263C33.004 43.149 32.038 44.942 31.087 46.743C29.099 50.508 27.202 54.321 25.137 58.043C24.7681 58.8277 24.1114 59.4404 23.303 59.7539C22.4946 60.0674 21.5965 60.0578 20.795 59.727C20.3829 59.5581 20.0099 59.3065 19.6988 58.9878C19.3878 58.669 19.1453 58.2899 18.9865 57.8739C18.8277 57.4578 18.7558 57.0136 18.7753 56.5687C18.7948 56.1238 18.9053 55.6876 19.1 55.287C20.56 52.496 22.13 49.763 23.648 47.002C25.372 43.8687 27.0933 40.731 28.812 37.589C28.926 37.381 29.045 37.212 28.83 36.973C28.1271 36.1014 27.736 35.0196 27.719 33.9C27.4743 31.0633 27.2317 28.2263 26.991 25.389C26.9779 25.3174 26.9605 25.2466 26.939 25.177C25.3698 27.2526 24.0152 29.482 22.896 31.831C22.6687 32.325 22.4397 32.818 22.209 33.31C22.0604 33.6402 21.8394 33.9328 21.5625 34.1662C21.2855 34.3995 20.9597 34.5676 20.609 34.658C20.4977 34.688 20.3941 34.7415 20.3052 34.815C20.2163 34.8885 20.1443 34.9803 20.094 35.084C16.2273 41.88 12.356 48.6747 8.48 55.468C8.41082 55.5686 8.37337 55.6876 8.37248 55.8097C8.37158 55.9318 8.40729 56.0514 8.475 56.153C8.76888 56.6529 8.88132 57.2388 8.79332 57.812C8.70533 58.3851 8.4223 58.9103 7.992 59.299C7.57485 59.6859 7.04162 59.9243 6.47509 59.9771C5.90857 60.0299 5.34047 59.8942 4.859 59.591C4.35932 59.2767 3.98408 58.7988 3.79718 58.2389C3.61028 57.6789 3.62329 57.0714 3.834 56.52C3.95 56.19 3.865 56.084 3.605 55.942C2.667 55.428 1.736 54.9 0.805 54.368C0.621814 54.3061 0.45631 54.2008 0.32258 54.0611C0.18885 53.9214 0.090855 53.7515 0.0369406 53.5658C-0.0169738 53.3801 -0.025211 53.1841 0.0129304 52.9945C0.0510718 52.805 0.134462 52.6274 0.256 52.477C3.03267 47.5657 5.814 42.657 8.6 37.751C8.6663 37.5746 8.77369 37.4165 8.91327 37.2899C9.05284 37.1633 9.22059 37.0717 9.4026 37.0228C9.58461 36.974 9.77565 36.9692 9.95988 37.0088C10.1441 37.0485 10.3162 37.1315 10.462 37.251C11.755 37.967 13.048 38.685 14.323 39.433C14.684 39.644 14.823 39.575 15.017 39.228C15.917 37.59 16.833 35.965 17.752 34.339C17.882 34.109 17.97 33.939 17.768 33.67C17.4763 33.2768 17.3012 32.8093 17.2629 32.3212C17.2245 31.8331 17.3243 31.344 17.551 30.91C19.0905 27.3719 21.0857 24.0501 23.486 21.029C24.9661 19.0141 26.6321 17.1426 28.462 15.439C29.6086 14.3848 31.101 13.7862 32.6583 13.7558C34.2155 13.7254 35.7302 14.2654 36.917 15.274C38.417 16.459 39.823 17.762 41.327 18.941C43.4765 20.7856 46.0077 22.1315 48.739 22.882C49.249 23.001 49.772 23.068 50.283 23.182C50.9506 23.3159 51.5377 23.7095 51.9152 24.2762C52.2927 24.8429 52.4297 25.5363 52.296 26.204C52.1773 26.8535 51.8166 27.4337 51.2866 27.8276C50.7567 28.2215 50.0971 28.3996 49.441 28.326C47.0146 28.1159 44.6422 27.4911 42.427 26.479C41.3558 25.9536 40.3412 25.32 39.399 24.588C39.4099 25.4937 39.471 26.3981 39.582 27.297C39.748 29.455 39.95 31.61 40.1 33.769C40.1485 34.6929 39.8715 35.6045 39.317 36.345C39.2254 36.4499 39.173 36.5833 39.169 36.7226C39.165 36.8618 39.2095 36.998 39.295 37.108C42.7362 42.8889 45.808 48.8819 48.492 55.051C48.7802 55.5756 48.9215 56.1683 48.9009 56.7665C48.8803 57.3647 48.6986 57.9462 48.375 58.4497C48.0514 58.9533 47.5979 59.3601 47.0623 59.6274C46.5267 59.8946 45.9289 60.0123 45.332 59.968C44.7035 59.9416 44.0965 59.7319 43.5857 59.3648C43.0748 58.9977 42.6825 58.4892 42.457 57.902C41.479 55.786 40.526 53.657 39.509 51.56C37.83 48.094 36.069 44.669 34.009 41.26" fill="white"/>
</g>
</svg>
