<svg xmlns="http://www.w3.org/2000/svg" xmlns:xlink="http://www.w3.org/1999/xlink" width="55.819" height="64" viewBox="0 0 55.819 64">
  <defs>
    <clipPath id="clip-path">
      <rect id="Rectangle_124" data-name="Rectangle 124" width="55.819" height="64" fill="#333"/>
    </clipPath>
  </defs>
  <g id="Group_5178" data-name="Group 5178" clip-path="url(#clip-path)">
    <path id="Path_89" data-name="Path 89" d="M182.583,0a15.233,15.233,0,0,1,2.264.762,7.258,7.258,0,0,1,3.837,7.6A7.192,7.192,0,1,1,180.2.129c.1-.021.211-.006.256-.129Z" transform="translate(-146.171)" fill="#333"/>
    <path id="Path_90" data-name="Path 90" d="M36.279,120.045c-1.074,2.011-2.1,3.924-3.119,5.845-2.121,4.016-4.144,8.083-6.347,12.056a3.6,3.6,0,0,1-4.631,1.8,3.476,3.476,0,0,1-1.808-4.736c1.558-2.977,3.232-5.892,4.851-8.837q2.759-5.017,5.509-10.04c.122-.222.248-.4.019-.658a5.351,5.351,0,0,1-1.185-3.277q-.391-4.539-.776-9.078a1.973,1.973,0,0,0-.056-.226,41.039,41.039,0,0,0-4.312,7.1q-.364.79-.732,1.578a2.577,2.577,0,0,1-1.7,1.438.859.859,0,0,0-.55.454Q15.244,124.329,9.047,135.2a.651.651,0,0,0-.006.731,2.687,2.687,0,0,1-.515,3.356,2.755,2.755,0,0,1-3.342.311,2.722,2.722,0,0,1-1.093-3.276c.124-.352.033-.465-.244-.616-1-.548-1.993-1.112-2.984-1.679a1.278,1.278,0,0,1-.585-2.017q4.438-7.86,8.893-15.711a1.265,1.265,0,0,1,1.987-.53c1.379.764,2.758,1.53,4.118,2.328.385.226.538.151.741-.219.956-1.747,1.937-3.481,2.918-5.215.139-.246.233-.428.017-.714a2.781,2.781,0,0,1-.232-2.944,47.243,47.243,0,0,1,6.331-10.54A42.619,42.619,0,0,1,30.357,92.5a6.81,6.81,0,0,1,9.018-.176c1.6,1.264,3.1,2.653,4.7,3.911a20.467,20.467,0,0,0,7.906,4.2c.544.127,1.1.2,1.647.323a2.739,2.739,0,0,1,2.147,3.224,2.781,2.781,0,0,1-3.046,2.263,22.724,22.724,0,0,1-7.481-1.971,18.656,18.656,0,0,1-3.23-2.018,26.133,26.133,0,0,0,.195,2.89c.177,2.3.393,4.6.552,6.9a4.216,4.216,0,0,1-.835,2.748.639.639,0,0,0-.023.814,170.044,170.044,0,0,1,9.815,19.137c1.2,2.69-.516,5.387-3.371,5.244a3.44,3.44,0,0,1-3.067-2.2c-1.043-2.258-2.06-4.527-3.144-6.765-1.791-3.7-3.669-7.35-5.865-10.986" transform="translate(0 -76.032)" fill="#333"/>
  </g>
</svg>
