<svg xmlns="http://www.w3.org/2000/svg" width="54.325" height="53" viewBox="0 0 54.325 53">
  <g id="Group_5167" data-name="Group 5167" transform="translate(-1158.272 -6249.329)">
    <g id="Group_5163" data-name="Group 5163" transform="translate(1158.272 6277.005)">
      <path id="Path_78" data-name="Path 78" d="M1166.86,6315.637h-6.648a1.94,1.94,0,1,1,0-3.88h6.648V6296h-6.648a1.94,1.94,0,1,1,0-3.88h6.648a3.885,3.885,0,0,1,3.88,3.88v15.754A3.885,3.885,0,0,1,1166.86,6315.637Z" transform="translate(-1158.272 -6292.123)" fill="#333"/>
    </g>
    <g id="Group_5164" data-name="Group 5164" transform="translate(1166.86 6279.369)">
      <path id="Path_79" data-name="Path 79" d="M1191.136,6318.739c-4.487,0-8.176-1.214-12.386-2.6-1.807-.595-3.675-1.209-5.768-1.778a1.941,1.941,0,0,1-1.431-1.872v-14.772a1.94,1.94,0,0,1,1.94-1.939h6.87a19.106,19.106,0,0,1,9.409,2.457,4.7,4.7,0,0,0,2.3.595c.546,0,.926,0,2.407-.012l.986-.009a5.324,5.324,0,0,1,4.782,2.625,5.63,5.63,0,0,1,.757,2.587l6.658-2c4.975-1.735,7.248.353,8,1.333a5.491,5.491,0,0,1,.834,4.423,4.69,4.69,0,0,1-2.185,3.216C1203.616,6316.838,1196.752,6318.738,1191.136,6318.739Zm-15.7-7.717c1.614.473,3.092.958,4.531,1.433,8.866,2.915,14.724,4.844,32.479-4.869a2.032,2.032,0,0,0,.127-1.882c-.389-.512-1.673-.712-3.666-.012-.029.012-.057.02-.086.028l-10.852,3.267a5.524,5.524,0,0,1-2.094.4h-9.923a1.94,1.94,0,1,1,0-3.88h9.921a1.667,1.667,0,0,0,.609-.1c.03-.014.06-.027.09-.039a.885.885,0,0,0,.382-.366,1.706,1.706,0,0,0-.057-1.607,1.473,1.473,0,0,0-1.4-.7l-.986.008c-1.513.012-1.9.014-2.463.012a8.584,8.584,0,0,1-4.206-1.111,15.175,15.175,0,0,0-7.476-1.94h-4.93Z" transform="translate(-1171.551 -6295.778)" fill="#333"/>
    </g>
    <g id="Group_5165" data-name="Group 5165" transform="translate(1188.034 6264.276)">
      <path id="Path_80" data-name="Path 80" d="M1211.08,6286.02a6.789,6.789,0,1,1,6.79-6.789A6.8,6.8,0,0,1,1211.08,6286.02Zm0-9.7a2.909,2.909,0,1,0,2.91,2.909A2.913,2.913,0,0,0,1211.08,6276.321Z" transform="translate(-1204.291 -6272.441)" fill="#333"/>
    </g>
    <g id="Group_5166" data-name="Group 5166" transform="translate(1199.018 6249.329)">
      <path id="Path_81" data-name="Path 81" d="M1228.064,6262.909a6.79,6.79,0,1,1,6.79-6.79A6.8,6.8,0,0,1,1228.064,6262.909Zm0-9.7a2.909,2.909,0,1,0,2.91,2.909A2.912,2.912,0,0,0,1228.064,6253.209Z" transform="translate(-1221.275 -6249.329)" fill="#333"/>
    </g>
  </g>
</svg>
