<svg xmlns="http://www.w3.org/2000/svg" xmlns:xlink="http://www.w3.org/1999/xlink" width="60" height="52.222" viewBox="0 0 60 52.222">
  <defs>
    <clipPath id="clip-path">
      <rect id="Rectangle_116" data-name="Rectangle 116" width="60" height="52.222" fill="#333"/>
    </clipPath>
  </defs>
  <g id="home-delivery_1" data-name="home-delivery 1" clip-path="url(#clip-path)">
    <path id="Path_68" data-name="Path 68" d="M0,37.8H28.628v2.588H0ZM48.1,3.451H44.727c-.146,0-.22.128-.259.271l-.488,1.824c-.039.143.117.271.259.271h2.539a6.854,6.854,0,0,0-.337,2.07A6.412,6.412,0,0,0,48.292,12.4a6.279,6.279,0,0,0,8.939,0,6.412,6.412,0,0,0,1.851-4.512,6.515,6.515,0,0,0-1.823-4.615,6.392,6.392,0,0,0-4.524-1.956A6.172,6.172,0,0,0,48.1,3.451ZM58.54,35.6,60,48.767c-.039,4.175-5.605,4.579-6.211,1.139l-1.06-12.748L51.27,49.176c-1.313,4.668-6.729,2.923-6.211-.631l.928-5.422.791-9.11c-1.309-3.544-.161-5.915-.239-10.066-2.349,2.4-4.17,4.151-7.739,4.264-1.128-.044-2.93-.128-4.058-.256-1.377-.158-2.344-.1-3.208-1.356A2.441,2.441,0,0,1,33.716,22.7c1.953.177,5.547.626,6.89-1.045,1.4-1.346,2.476-3.229,4.3-3.825,10.254-3.362,12.8-2.046,13.672,1.656a108.679,108.679,0,0,1,.488,11.239,22.816,22.816,0,0,1-.488,4.865ZM30.864,13.2v8.153a4.529,4.529,0,0,0-.928.986,4.373,4.373,0,0,0-.571,1.257l-2.681-1.617.078-11.412,4.1,2.613Zm1.719-3.707,4.072,2.341-5.3.675-3.711-2.361Zm-.874,11.338V13.309l5.522-.71.181,5.324,1.953-1.331,1.953,1.1-.4-5.57,3.311-.38v4.027a10.142,10.142,0,0,0-3.106,2.8,16.363,16.363,0,0,1-1.167,1.3l-.137.148c-.854,1.015-3.784.744-5.64.572-.752-.069.977.079-.386-.039a3.6,3.6,0,0,0-2.09.281Zm8.662-9.489-3.95-2.361,1.665-.168,5.024,2.228Zm-15.186,25.3V0H3.442V36.635ZM7.261,17.746l2.3-1.04v7.256l-2.3-.651Z" fill="#333" fill-rule="evenodd"/>
  </g>
</svg>
