<svg xmlns="http://www.w3.org/2000/svg" width="18.234" height="15.624" viewBox="0 0 18.234 15.624">
  <g id="mail-open-outline_1" data-name="mail-open-outline 1" transform="translate(-1.344 -3.045)">
    <path id="Path_2" data-name="Path 2" d="M17.7,7.509,10.884,4.144a.959.959,0,0,0-.848,0L3.218,7.509a1.561,1.561,0,0,0-.874,1.4v7.2a1.571,1.571,0,0,0,1.581,1.561H17a1.571,1.571,0,0,0,1.581-1.561v-7.2a1.561,1.561,0,0,0-.876-1.4Z" fill="none" stroke="#fff" stroke-linecap="round" stroke-linejoin="round" stroke-width="2"/>
    <path id="Path_3" data-name="Path 3" d="M3,9l5.509,5.534m7.807,3.742-5.123-5.3a.773.773,0,0,0-1.168,0L4.9,18.277Zm-3.487-3.848L18.218,9Z" transform="translate(-0.149 -0.68)" fill="none" stroke="#fff" stroke-linecap="round" stroke-linejoin="round" stroke-width="2"/>
  </g>
</svg>
