<svg width="54" height="49" viewBox="0 0 54 49" fill="none" xmlns="http://www.w3.org/2000/svg">
<path d="M24.3 48.6V44.55H47.25V24.03C47.2523 21.426 46.6761 18.8541 45.563 16.5C44.4554 14.1168 42.9231 11.9552 41.041 10.121C39.1559 8.27957 36.9623 6.78321 34.56 5.70002C32.1886 4.61041 29.6097 4.04628 27 4.04628C24.3903 4.04628 21.8114 4.61041 19.44 5.70002C17.038 6.78333 14.8448 8.27968 12.96 10.121C11.0779 11.9552 9.54558 14.1168 8.43799 16.5C7.32452 18.854 6.74796 21.426 6.75 24.03V40.5H5.39999C4.68964 40.5102 3.98473 40.3747 3.32876 40.102C2.67279 39.8292 2.07967 39.4249 1.586 38.914C1.07512 38.4203 0.670823 37.8272 0.398046 37.1713C0.125269 36.5153 -0.0102009 35.8104 -4.62227e-06 35.1V29.7C-0.0198238 28.7364 0.237734 27.7874 0.741995 26.966C1.23514 26.1803 1.90578 25.5213 2.7 25.042L2.9 21.465C3.25309 18.3429 4.20371 15.3179 5.7 12.555C7.09155 9.98757 8.9453 7.69919 11.168 5.80502C13.3525 3.95897 15.8426 2.50853 18.526 1.51902C24.0152 -0.506014 30.0468 -0.506014 35.536 1.51902C38.2172 2.50704 40.6982 3.97046 42.86 5.83902C45.0557 7.75053 46.8954 10.0358 48.294 12.589C49.7891 15.3174 50.742 18.3095 51.1 21.4L51.3 24.91C52.1118 25.3194 52.7941 25.946 53.2708 26.7202C53.7475 27.4945 54 28.3858 54 29.295V35.5C54.0164 36.4313 53.758 37.3468 53.257 38.132C52.7771 38.886 52.1005 39.4946 51.3 39.892V44.55C51.3022 45.0825 51.199 45.6102 50.9963 46.1025C50.7936 46.5949 50.4953 47.0423 50.1188 47.4188C49.7423 47.7953 49.2949 48.0936 48.8025 48.2963C48.3101 48.499 47.7825 48.6023 47.25 48.6H24.3ZM18.9 29.025C18.6346 29.0259 18.3719 28.9724 18.1281 28.8678C17.8842 28.7632 17.6643 28.6098 17.482 28.417C17.2846 28.2242 17.1288 27.9929 17.0242 27.7375C16.9196 27.4821 16.8685 27.2079 16.874 26.932C16.8712 26.6714 16.924 26.4131 17.0289 26.1745C17.1337 25.9359 17.2882 25.7223 17.482 25.548C17.8814 25.1675 18.4155 24.9611 18.967 24.974C19.2247 24.9701 19.4804 25.019 19.7184 25.1177C19.9565 25.2164 20.1718 25.3629 20.351 25.548C20.5407 25.738 20.6895 25.9649 20.7882 26.2146C20.887 26.4643 20.9335 26.7316 20.925 27C20.9289 27.5297 20.7224 28.0393 20.351 28.417C20.1661 28.6155 19.9411 28.7724 19.691 28.8773C19.4408 28.9821 19.1712 29.0325 18.9 29.025ZM35.1 29.025C34.8348 29.0257 34.5723 28.9722 34.3286 28.8676C34.0849 28.763 33.8652 28.6097 33.683 28.417C33.4856 28.2242 33.3298 27.9929 33.2252 27.7375C33.1206 27.4821 33.0695 27.2079 33.075 26.932C33.0722 26.6714 33.125 26.4131 33.2299 26.1745C33.3347 25.9359 33.4892 25.7223 33.683 25.548C34.0824 25.1675 34.6165 24.9611 35.168 24.974C35.4257 24.9701 35.6814 25.019 35.9194 25.1177C36.1575 25.2164 36.3728 25.3629 36.552 25.548C36.7415 25.7381 36.8902 25.965 36.9887 26.2147C37.0872 26.4645 37.1336 26.7317 37.125 27C37.1289 27.5297 36.9224 28.0393 36.551 28.417C36.3661 28.6155 36.1411 28.7724 35.891 28.8773C35.6408 28.9821 35.3711 29.0325 35.1 29.025ZM10.868 25.515C10.6577 23.0533 11.0397 20.577 11.982 18.293C12.8395 16.2299 14.102 14.3597 15.695 12.793C18.7717 9.82921 22.8632 8.15077 27.135 8.10002C30.9521 7.9951 34.6588 9.3881 37.462 11.981C40.2303 14.5273 42.0411 17.9463 42.592 21.667C38.6077 21.6974 34.7095 20.5078 31.421 18.258C28.2278 16.0588 25.6581 13.0706 23.962 9.58402C23.2818 13.1444 21.7148 16.4757 19.406 19.27C17.1389 22.0457 14.1994 24.1952 10.867 25.514L10.868 25.515Z" fill="white"/>
</svg>
