<svg width="54" height="47" viewBox="0 0 54 47" fill="none" xmlns="http://www.w3.org/2000/svg">
<path d="M21.736 21.377C20.3823 21.4361 19.0311 21.2131 17.7682 20.722C16.5054 20.2309 15.3584 19.4826 14.4002 18.5245C13.4421 17.5664 12.6936 16.4196 12.2024 15.1567C11.7112 13.8939 11.488 12.5427 11.547 11.189C11.4879 9.83524 11.711 8.48395 12.2021 7.221C12.6932 5.95806 13.4417 4.81106 14.3999 3.85288C15.358 2.89469 16.505 2.14626 17.768 1.65513C19.0309 1.164 20.3822 0.940911 21.736 1.00003C23.0898 0.940911 24.4411 1.164 25.704 1.65513C26.967 2.14626 28.114 2.89469 29.0722 3.85288C30.0303 4.81106 30.7788 5.95806 31.2699 7.221C31.761 8.48395 31.9841 9.83524 31.925 11.189C31.984 12.5427 31.7608 13.8939 31.2696 15.1567C30.7784 16.4196 30.0299 17.5664 29.0718 18.5245C28.1136 19.4826 26.9667 20.2309 25.7038 20.722C24.4409 21.2131 23.0897 21.4361 21.736 21.377ZM2.57249e-06 43.181V36.796C-0.0205926 35.2854 0.392018 33.8005 1.189 32.517C2.01345 31.2213 3.20855 30.2036 4.619 29.596C7.53399 28.2648 10.5708 27.2183 13.687 26.471C16.326 25.8541 19.0259 25.5351 21.736 25.52H23.3C23.0387 26.1224 22.8342 26.7477 22.689 27.388C22.5346 28.1171 22.4211 28.8543 22.349 29.596H21.738C19.1448 29.5924 16.5593 29.8771 14.029 30.445C11.335 31.0762 8.72472 32.0224 6.252 33.264C5.5636 33.5924 4.99407 34.1262 4.622 34.792C4.27272 35.4012 4.08575 36.0899 4.079 36.792V39.101H22.347C22.5524 39.8598 22.8252 40.5987 23.162 41.309C23.4816 41.9698 23.8687 42.5958 24.317 43.177L2.57249e-06 43.181ZM39.872 46.17L39.193 41.687C38.3795 41.4422 37.5941 41.112 36.85 40.702C36.1166 40.314 35.4431 39.8223 34.85 39.242L31.114 40.057L29.414 37.204L32.6 34.215C32.4185 33.089 32.4185 31.9411 32.6 30.815L29.411 27.83L31.111 24.977L34.847 25.792C35.4401 25.2118 36.1137 24.7201 36.847 24.332C37.5911 23.922 38.3765 23.5918 39.19 23.347L39.869 18.864H43.54L44.219 23.347C45.0325 23.5918 45.8179 23.922 46.562 24.332C47.2954 24.7201 47.9689 25.2118 48.562 25.792L52.298 24.977L54 27.83L50.808 30.819C50.9895 31.9451 50.9895 33.093 50.808 34.219L54 37.204L52.3 40.057L48.564 39.242C47.9709 39.8223 47.2973 40.314 46.564 40.702C45.8199 41.112 45.0345 41.4422 44.221 41.687L43.54 46.17H39.872ZM41.706 37.95C42.4348 37.9742 43.161 37.8516 43.8415 37.5894C44.5219 37.3273 45.1426 36.9309 45.6667 36.4239C46.1909 35.9169 46.6076 35.3097 46.8923 34.6383C47.1769 33.967 47.3236 33.2452 47.3236 32.516C47.3236 31.7868 47.1769 31.0651 46.8923 30.3937C46.6076 29.7224 46.1909 29.1151 45.6667 28.6082C45.1426 28.1012 44.5219 27.7048 43.8415 27.4426C43.161 27.1804 42.4348 27.0578 41.706 27.082C40.9772 27.0578 40.251 27.1804 39.5706 27.4426C38.8901 27.7048 38.2694 28.1012 37.7453 28.6082C37.2211 29.1151 36.8044 29.7224 36.5197 30.3937C36.2351 31.0651 36.0884 31.7868 36.0884 32.516C36.0884 33.2452 36.2351 33.967 36.5197 34.6383C36.8044 35.3097 37.2211 35.9169 37.7453 36.4239C38.2694 36.9309 38.8901 37.3273 39.5706 37.5894C40.251 37.8516 40.9772 37.9742 41.706 37.95ZM21.736 17.302C22.5459 17.3283 23.3525 17.1882 24.1061 16.8902C24.8596 16.5923 25.544 16.143 26.117 15.57C26.69 14.9971 27.1393 14.3127 27.4372 13.5591C27.7351 12.8056 27.8753 11.9989 27.849 11.189C27.8753 10.3792 27.7351 9.5725 27.4372 8.81895C27.1393 8.0654 26.69 7.38098 26.117 6.80801C25.544 6.23504 24.8596 5.78571 24.1061 5.4878C23.3525 5.1899 22.5459 5.04975 21.736 5.07603C20.9261 5.04975 20.1195 5.1899 19.3659 5.4878C18.6124 5.78571 17.928 6.23504 17.355 6.80801C16.782 7.38098 16.3327 8.0654 16.0348 8.81895C15.7369 9.5725 15.5967 10.3792 15.623 11.189C15.5967 11.9989 15.7369 12.8056 16.0348 13.5591C16.3327 14.3127 16.782 14.9971 17.355 15.57C17.928 16.143 18.6124 16.5923 19.3659 16.8902C20.1195 17.1882 20.9261 17.3283 21.736 17.302Z" fill="white"/>
</svg>
