<svg xmlns="http://www.w3.org/2000/svg" width="16" height="16" viewBox="0 0 16 16">
  <path id="settings_FILL0_wght400_GRAD0_opsz48" d="M10.16,20l-.4-2.52a5.359,5.359,0,0,1-.8-.38,5.5,5.5,0,0,1-.74-.5L5.86,17.68,4,14.4l2.16-1.58a2.378,2.378,0,0,1-.05-.41Q6.1,12.18,6.1,12t.01-.41a2.378,2.378,0,0,1,.05-.41L4,9.6,5.86,6.32,8.22,7.4a5.5,5.5,0,0,1,.74-.5,4.139,4.139,0,0,1,.8-.36L10.16,4h3.68l.4,2.52a6.484,6.484,0,0,1,.81.37,3.443,3.443,0,0,1,.73.51l2.36-1.08L20,9.6l-2.16,1.54a2.818,2.818,0,0,1,.05.43q.01.23.01.43t-.01.42a2.785,2.785,0,0,1-.05.42L20,14.4l-1.86,3.28L15.78,16.6a6.635,6.635,0,0,1-.73.51,3.485,3.485,0,0,1-.81.37L13.84,20ZM12,14.6A2.595,2.595,0,0,0,14.6,12,2.595,2.595,0,0,0,12,9.4,2.595,2.595,0,0,0,9.4,12,2.595,2.595,0,0,0,12,14.6Zm0-1.2a1.4,1.4,0,1,1,.99-.41A1.349,1.349,0,0,1,12,13.4ZM12,12Zm-.88,6.8h1.76l.28-2.24a4.717,4.717,0,0,0,1.25-.5,5.126,5.126,0,0,0,1.07-.82l2.12.92.8-1.44-1.88-1.38q.08-.34.13-.67A4.466,4.466,0,0,0,16.7,12a5.563,5.563,0,0,0-.04-.67,4.138,4.138,0,0,0-.14-.67L18.4,9.28l-.8-1.44-2.12.92a4.458,4.458,0,0,0-1.04-.87,3.373,3.373,0,0,0-1.28-.45L12.88,5.2H11.12l-.28,2.24a4.238,4.238,0,0,0-1.27.48,4.411,4.411,0,0,0-1.05.84L6.4,7.84,5.6,9.28l1.88,1.38q-.08.34-.13.67a4.514,4.514,0,0,0,0,1.34q.05.33.13.67L5.6,14.72l.8,1.44,2.12-.92a5.126,5.126,0,0,0,1.07.82,4.717,4.717,0,0,0,1.25.5Z" transform="translate(-4 -4)" fill="#fff"/>
</svg>
