<svg xmlns="http://www.w3.org/2000/svg" width="24" height="24" viewBox="0 0 24 24">
  <path id="Vector" d="M23.6,23.2H21.966A2.733,2.733,0,0,0,22,22.8a2.8,2.8,0,0,0-1.6-2.526V6.8a.4.4,0,0,0-.4-.4H11.2a.4.4,0,0,0-.4.4V19.259a2.835,2.835,0,0,0-.8-.584V6.8a1.2,1.2,0,0,1,1.2-1.2H14V.4a.4.4,0,0,0-.4-.4H2.8a.4.4,0,0,0-.4.4V23.2H.4a.4.4,0,0,0,0,.8H23.6a.4.4,0,1,0,0-.8ZM11.2,2A.4.4,0,0,1,12,2v.8a.4.4,0,0,1-.8,0Zm6.4,6.4a.4.4,0,0,1,.8,0v.8a.4.4,0,0,1-.8,0Zm0,2.4a.4.4,0,0,1,.8,0v.8a.4.4,0,1,1-.8,0Zm0,2.4a.4.4,0,1,1,.8,0V14a.4.4,0,1,1-.8,0Zm0,2.4a.4.4,0,0,1,.8,0v.8a.4.4,0,0,1-.8,0Zm0,2.4a.4.4,0,0,1,.8,0v.8a.4.4,0,0,1-.8,0ZM15.2,8.4a.4.4,0,0,1,.8,0v.8a.4.4,0,0,1-.8,0Zm0,2.4a.4.4,0,0,1,.8,0v.8a.4.4,0,1,1-.8,0Zm0,2.4a.4.4,0,1,1,.8,0V14a.4.4,0,1,1-.8,0Zm0,2.4a.4.4,0,0,1,.8,0v.8a.4.4,0,0,1-.8,0Zm0,2.4a.4.4,0,0,1,.8,0v.8a.4.4,0,0,1-.8,0ZM12.8,8.4a.4.4,0,0,1,.8,0v.8a.4.4,0,0,1-.8,0Zm0,2.4a.4.4,0,0,1,.8,0v.8a.4.4,0,1,1-.8,0Zm0,2.4a.4.4,0,1,1,.8,0V14a.4.4,0,1,1-.8,0Zm0,2.4a.4.4,0,0,1,.8,0v.8a.4.4,0,0,1-.8,0Zm0,2.4a.4.4,0,0,1,.8,0v.8a.4.4,0,0,1-.8,0ZM8.8,2a.4.4,0,0,1,.8,0v.8a.4.4,0,0,1-.8,0Zm0,2.4a.4.4,0,0,1,.8,0v.8a.4.4,0,0,1-.8,0Zm0,2.4a.4.4,0,0,1,.8,0v.8a.4.4,0,0,1-.8,0Zm0,2.4a.4.4,0,0,1,.8,0V10a.4.4,0,0,1-.8,0Zm0,2.4a.4.4,0,0,1,.8,0v.8a.4.4,0,1,1-.8,0Zm0,2.4a.4.4,0,1,1,.8,0v.8a.4.4,0,1,1-.8,0Zm0,2.4a.4.4,0,1,1,.8,0v.8a.4.4,0,1,1-.8,0ZM6.4,2a.4.4,0,0,1,.8,0v.8a.4.4,0,0,1-.8,0Zm0,2.4a.4.4,0,0,1,.8,0v.8a.4.4,0,0,1-.8,0Zm0,2.4a.4.4,0,0,1,.8,0v.8a.4.4,0,0,1-.8,0Zm0,2.4a.4.4,0,0,1,.8,0V10a.4.4,0,0,1-.8,0Zm0,2.4a.4.4,0,0,1,.8,0v.8a.4.4,0,1,1-.8,0Zm0,2.4a.4.4,0,1,1,.8,0v.8a.4.4,0,1,1-.8,0Zm0,2.4a.4.4,0,1,1,.8,0v.8a.4.4,0,1,1-.8,0Zm0,2.4a.4.4,0,1,1,.8,0v.106a2.822,2.822,0,0,0-.775.817A.385.385,0,0,1,6.4,19.6v-.8ZM4,2a.4.4,0,0,1,.8,0v.8a.4.4,0,0,1-.8,0ZM4,4.4a.4.4,0,0,1,.8,0v.8a.4.4,0,0,1-.8,0ZM4,6.8a.4.4,0,0,1,.8,0v.8a.4.4,0,0,1-.8,0ZM4,9.2a.4.4,0,0,1,.8,0V10A.4.4,0,0,1,4,10Zm0,2.4a.4.4,0,0,1,.8,0v.8a.4.4,0,1,1-.8,0ZM4,14a.4.4,0,1,1,.8,0v.8a.4.4,0,1,1-.8,0Zm0,2.4a.4.4,0,1,1,.8,0v.8a.4.4,0,1,1-.8,0Zm0,2.4a.4.4,0,1,1,.8,0v.8a.4.4,0,1,1-.8,0Zm.025,3.322A.388.388,0,0,1,4,22v-.8a.4.4,0,1,1,.8,0v.106A2.818,2.818,0,0,0,4.025,22.122Zm8.832-.236,0,.011c-.016.074-.028.149-.037.225,0,.008,0,.017,0,.025a2.289,2.289,0,0,0,.022.654c0,.018.01.035.014.053a2.352,2.352,0,0,0,.093.342s0,0,0,0h-8.5c0-.007,0-.014.006-.021a1.987,1.987,0,0,1,.1-.333c.016-.038.037-.073.054-.11a2.071,2.071,0,0,1,.116-.214c.026-.039.055-.076.083-.113a1.973,1.973,0,0,1,.142-.172c.033-.036.068-.069.1-.1A1.935,1.935,0,0,1,5.218,22c.039-.029.079-.058.12-.084a1.992,1.992,0,0,1,.2-.107c.043-.02.084-.042.128-.06A2.068,2.068,0,0,1,5.9,21.67c.04-.01.078-.024.118-.032A1.98,1.98,0,0,1,6.4,21.6a.4.4,0,0,0,.4-.4,2,2,0,0,1,2-2,1.981,1.981,0,0,1,.339.031,1.956,1.956,0,0,1,.222.058c.03.009.06.015.089.025a2.019,2.019,0,0,1,.275.123l.01,0a2.067,2.067,0,0,1,.265.172,1.992,1.992,0,0,1,.776,1.291.4.4,0,0,0,.722.173c.007-.009.014-.017.021-.026l0,0a1.651,1.651,0,0,1,.255-.272l.012-.01a1.6,1.6,0,0,1,.288-.191l.037-.016a1.568,1.568,0,0,1,.31-.114l.026,0A1.573,1.573,0,0,1,12.8,20.4a1.6,1.6,0,0,1,.291.03l.066.014a1.551,1.551,0,0,1,.271.087l.031.016c.046.022.09.05.134.076A2.4,2.4,0,0,0,12.857,21.886Zm8.3,1.314H13.833a1.63,1.63,0,0,1-.143-.292l-.007-.02a1.577,1.577,0,0,1-.053-.2c0-.015-.007-.03-.009-.045a1.487,1.487,0,0,1-.02-.239,1.609,1.609,0,0,1,.028-.28c.006-.03.012-.059.018-.088a1.625,1.625,0,0,1,.058-.186,1.663,1.663,0,0,1,.073-.163c.02-.039.04-.078.062-.114a1.547,1.547,0,0,1,.1-.142l.031-.038a1.631,1.631,0,0,1,.48-.392h0a1.594,1.594,0,0,1,2.066.515c.012.018.024.034.035.052a1.555,1.555,0,0,1,.141.278.4.4,0,0,0,.351.259h.024c.011,0,.021,0,.032,0a.388.388,0,0,0,.324-.212,1.941,1.941,0,0,1,.18-.283c.014-.019.03-.036.044-.054a2.027,2.027,0,0,1,.2-.213l.024-.022a2.021,2.021,0,0,1,.918-.465l.011,0a1.979,1.979,0,0,1,.343-.041h.006a2.025,2.025,0,0,1,.226.014c.056,0,.113.008.168.017a2.045,2.045,0,0,1,.219.055A2,2,0,0,1,21.2,22.8,1.967,1.967,0,0,1,21.158,23.2Z" fill="#fff"/>
</svg>
