<svg xmlns="http://www.w3.org/2000/svg" width="59.358" height="47.997" viewBox="0 0 59.358 47.997">
  <g id="Group_4551" data-name="Group 4551" transform="translate(-352 -301)">
    <g id="Group_96" data-name="Group 96" transform="translate(351 300.943)">
      <g id="Group_95" data-name="Group 95" transform="translate(0 3.057)">
        <path id="Path_40" data-name="Path 40" d="M23.249,26.5H21.8a1.355,1.355,0,0,1-1.357-1.355,1.03,1.03,0,0,1,.31-.738,9.737,9.737,0,0,0,2.057-3.1.581.581,0,0,0,.342.132c.81,0,1.766-1.792,1.766-3.013S24.81,16.217,24,16.217a1.251,1.251,0,0,0-.3.043c-.058-3.312-.894-7.443-5.951-7.443-5.276,0-5.891,4.124-5.951,7.432a1.158,1.158,0,0,0-.217-.032c-.812,0-.924.991-.924,2.212s.952,3.013,1.764,3.013a.555.555,0,0,0,.281-.078,9.767,9.767,0,0,0,2.033,3.05,1.023,1.023,0,0,1,.31.736,1.357,1.357,0,0,1-1.357,1.357H12.239A5.592,5.592,0,0,0,6.647,32.1v1.55a1.766,1.766,0,0,0,1.766,1.766H27.075a1.766,1.766,0,0,0,1.764-1.766V32.1A5.591,5.591,0,0,0,23.249,26.5Z" transform="translate(5.706 1.888)" fill="#fff"/>
        <path id="Path_41" data-name="Path 41" d="M31.818,10.077H16.168a11.507,11.507,0,0,1,.909,3.752,2.272,2.272,0,0,1,.79.94H31.818a1.307,1.307,0,0,0,1.308-1.308V11.385A1.308,1.308,0,0,0,31.818,10.077Z" transform="translate(13.88 2.97)" fill="#fff"/>
        <path id="Path_42" data-name="Path 42" d="M32.115,14.678H18.483a4.53,4.53,0,0,1-2.542,3.25c-.037.069-.08.128-.119.2v1.245H32.113a1.308,1.308,0,0,0,1.308-1.31V15.986A1.3,1.3,0,0,0,32.115,14.678Z" transform="translate(13.583 6.919)" fill="#fff"/>
        <path id="Path_43" data-name="Path 43" d="M29.5,19.279H18.863a7.144,7.144,0,0,1,1.115,3.832v.86H29.5a1.307,1.307,0,0,0,1.308-1.308V20.587A1.307,1.307,0,0,0,29.5,19.279Z" transform="translate(16.193 10.869)" fill="#fff"/>
      </g>
    </g>
    <path id="Path_44" data-name="Path 44" d="M51.322,3.057H8.038A8.037,8.037,0,0,0,0,11.095V43.016a8.036,8.036,0,0,0,8.038,8.038H51.322a8.035,8.035,0,0,0,8.036-8.038V11.095A8.035,8.035,0,0,0,51.322,3.057Zm4.243,39.959a4.247,4.247,0,0,1-4.243,4.243H8.038A4.247,4.247,0,0,1,3.8,43.016V11.095A4.247,4.247,0,0,1,8.038,6.852H51.322a4.247,4.247,0,0,1,4.243,4.243Z" transform="translate(352 297.943)" fill="#fff"/>
  </g>
</svg>
