<svg xmlns="http://www.w3.org/2000/svg" xmlns:xlink="http://www.w3.org/1999/xlink" width="54" height="39" viewBox="0 0 54 39">
  <defs>
    <clipPath id="clip-path">
      <rect id="Rectangle_126" data-name="Rectangle 126" width="54" height="39" fill="#333"/>
    </clipPath>
  </defs>
  <g id="taxi-cab_1" data-name="taxi-cab 1" clip-path="url(#clip-path)">
    <path id="Path_91" data-name="Path 91" d="M3.807,20.466C-.311,18.4.168,16.091,4.3,16.332l.943,1.717,1.872-5.869c.621-1.921,1.591-3.708,3.305-4.234V2.065A2.06,2.06,0,0,1,11.035.6,2.1,2.1,0,0,1,12.518,0H33.482a2.1,2.1,0,0,1,1.471.607,2.059,2.059,0,0,1,.611,1.458V7.786h.374c2.444,0,3.852,2.054,4.444,4.4l1.43,5.691.824-1.535c4.245-.245,4.623,2.2.131,4.308l.749,1.112c2.954,3.007,2.677,6.01,2.216,13.436v2.44a1.373,1.373,0,0,1-.408.972,1.4,1.4,0,0,1-.981.4H38.4a1.4,1.4,0,0,1-.981-.4,1.372,1.372,0,0,1-.408-.972V36.527H8.984v1.112a1.372,1.372,0,0,1-.408.972,1.4,1.4,0,0,1-.981.4H1.685a1.4,1.4,0,0,1-.981-.4A1.372,1.372,0,0,1,.3,37.639V34.454a2,2,0,0,1,0-.215C-.139,28.548-.771,23.4,3.807,20.466ZM14.813,7.786h1.872V3.615h1.37V2.132H13.443V3.615h1.37Zm3.268,0h1.988l.172-.742H21.8l.172.742h1.988l-1.5-5.654h-2.92Zm6.252,0h2L26.953,6.3h.086l.629,1.483h2.093L28.533,4.957l1.314-2.825H27.792l-.651,1.55h-.094L26.4,2.121H24.25L25.534,5Zm6.334,0h1.872V2.121H30.667Zm2.89,2.31H12.376c-1.872,0-2.815,1.6-3.369,3.355L7.2,19.343H39.7l-1.434-5.9c-.374-1.8-1.524-3.337-3.369-3.337ZM20.963,3.915l-.374,1.646h.861l-.374-1.639Zm-9.591,23.31-5.263-.656c-1.243-.137-1.576.371-1.153,1.442l.569,1.368a1.983,1.983,0,0,0,.711.786,2.424,2.424,0,0,0,1.179.323l4.694.037c1.123,0,1.625-.452,1.269-1.483a2.511,2.511,0,0,0-.737-1.2A2.548,2.548,0,0,0,11.373,27.225Zm23.255,0,5.263-.656c1.243-.137,1.576.371,1.153,1.442l-.569,1.368a1.983,1.983,0,0,1-.711.786,2.424,2.424,0,0,1-1.179.323l-4.694.037c-1.123,0-1.625-.452-1.269-1.483a2.509,2.509,0,0,1,.737-1.2A2.548,2.548,0,0,1,34.627,27.225Z" transform="translate(-0.001)" fill="#333" fill-rule="evenodd"/>
  </g>
</svg>
