<svg width="55" height="49" viewBox="0 0 55 49" fill="none" xmlns="http://www.w3.org/2000/svg">
<path fill-rule="evenodd" clip-rule="evenodd" d="M17.811 24.1C24.0696 22.5513 30.6114 22.5513 36.87 24.1C37.4524 24.2082 37.9738 24.5289 38.333 25C38.4607 25.1369 38.5715 25.2886 38.663 25.452L42.987 31.669L45.624 24.203C45.7636 23.6005 46.1346 23.0771 46.657 22.746L49.61 20.484C49.6846 20.4262 49.7701 20.3842 49.8613 20.3603C49.9526 20.3364 50.0477 20.3312 50.141 20.345C50.2347 20.3592 50.3247 20.392 50.4055 20.4415C50.4864 20.4909 50.5566 20.5561 50.612 20.633C50.6683 20.7108 50.7091 20.7987 50.732 20.892C50.7786 21.0805 50.7507 21.2797 50.654 21.448C50.6065 21.5305 50.5433 21.6029 50.468 21.661L48.745 22.991C48.899 23.054 49.057 23.122 49.211 23.199L51.101 21.927C51.1608 21.8864 51.2283 21.8583 51.2992 21.8444C51.3702 21.8304 51.4433 21.831 51.514 21.846C51.5851 21.8615 51.6523 21.891 51.7119 21.9327C51.7715 21.9744 51.8221 22.0275 51.861 22.089C51.9412 22.2159 51.9695 22.3688 51.94 22.516C51.9111 22.6624 51.826 22.7916 51.703 22.876L50.745 23.523H53.21C53.3143 23.5239 53.4174 23.5456 53.5132 23.5868C53.609 23.628 53.6956 23.6879 53.768 23.763C53.9175 23.9167 54.0012 24.1226 54.0012 24.337C54.0012 24.5514 53.9175 24.7573 53.768 24.911C53.6955 24.9857 53.6088 25.0452 53.513 25.0859C53.4171 25.1266 53.3141 25.1477 53.21 25.148H51.073C50.9811 25.4566 50.865 25.7575 50.726 26.048L46.143 39.69C45.9745 40.1857 45.669 40.6236 45.262 40.953C44.8617 41.2779 44.3747 41.478 43.8617 41.5285C43.3486 41.579 42.832 41.4776 42.376 41.237C41.9149 40.9937 41.5332 40.6234 41.276 40.17L37.141 33.632C36.508 37.74 35.95 44.441 34.941 48.256H19.731C18.685 44.283 18.096 37.347 17.437 33.067L12.955 40.167C12.6978 40.6204 12.3161 40.9907 11.855 41.234C11.399 41.4746 10.8824 41.576 10.3693 41.5255C9.85625 41.475 9.36931 41.2749 8.969 40.95C8.56314 40.6212 8.25844 40.1844 8.09 39.69L3.516 26.071C3.37712 25.7799 3.25948 25.4791 3.164 25.171H1.011C0.907726 25.1699 0.805712 25.1482 0.711 25.107C0.61463 25.0649 0.527604 25.0041 0.455 24.928C0.38147 24.8509 0.32372 24.7602 0.285 24.661C0.22719 24.5117 0.212758 24.3492 0.243368 24.192C0.273978 24.0349 0.348383 23.8897 0.458 23.773C0.529996 23.698 0.616273 23.6381 0.711758 23.5968C0.807242 23.5556 0.910004 23.5339 1.014 23.533H3.476L2.514 22.881C2.39047 22.7972 2.30467 22.6683 2.275 22.522C2.24461 22.3747 2.27219 22.2214 2.352 22.094C2.43212 21.9703 2.55795 21.8833 2.702 21.852C2.77295 21.8369 2.8462 21.8361 2.91747 21.8497C2.98873 21.8632 3.05657 21.8909 3.117 21.931L5.005 23.2C5.159 23.123 5.317 23.055 5.471 22.992L3.744 21.66C3.669 21.6018 3.60615 21.5294 3.559 21.447C3.48721 21.3214 3.45326 21.1778 3.46124 21.0334C3.46923 20.8889 3.5188 20.7499 3.604 20.633C3.65965 20.556 3.73001 20.4907 3.811 20.441C3.89069 20.3903 3.97982 20.3563 4.073 20.341C4.16572 20.3271 4.26031 20.3322 4.351 20.356C4.44208 20.3797 4.52745 20.4215 4.602 20.479L7.56 22.741C8.08098 23.0741 8.45101 23.5977 8.591 24.2L11.228 31.666L15.557 25.44C15.793 25.0553 16.1156 24.7311 16.499 24.493C16.8787 24.2582 17.309 24.1177 17.754 24.083H17.8L17.811 24.1ZM5.946 8.687V8.511C5.93752 8.1782 5.9684 7.84556 6.038 7.52C6.08843 7.30366 6.1861 7.10115 6.324 6.927C6.45068 6.77156 6.59844 6.63457 6.763 6.52C6.917 6.42 7.057 6.32 7.202 6.22C7.31467 6.13211 7.41257 6.02679 7.492 5.908C7.56664 5.79705 7.60507 5.66569 7.602 5.532C7.60387 5.41596 7.5734 5.3017 7.514 5.202C7.45712 5.10644 7.37515 5.02828 7.277 4.976C7.17312 4.92496 7.05874 4.89894 6.943 4.9C6.8206 4.89574 6.69923 4.92367 6.591 4.981C6.47645 5.04379 6.38142 5.13692 6.31633 5.25017C6.25123 5.36342 6.2186 5.49242 6.222 5.623H4.342C4.32267 5.14405 4.45001 4.67062 4.707 4.266C4.94671 3.93386 5.27832 3.67906 5.661 3.533C6.0738 3.36605 6.51575 3.2831 6.961 3.289C7.43426 3.28 7.90513 3.35831 8.35 3.52C8.73354 3.65948 9.07005 3.90415 9.321 4.226C9.56581 4.5768 9.6878 4.99868 9.668 5.426C9.678 5.689 9.63199 5.95113 9.533 6.195C9.43509 6.43701 9.28602 6.65499 9.096 6.834C8.90646 7.00863 8.69702 7.16034 8.472 7.286C8.3133 7.37694 8.16594 7.48637 8.033 7.612C7.91712 7.72168 7.8246 7.85366 7.761 8C7.69932 8.16489 7.66946 8.33998 7.673 8.516V8.692L5.946 8.687ZM6.825 11.216C6.69026 11.2192 6.55635 11.194 6.432 11.142C6.18 11.0304 5.98007 10.8269 5.873 10.573C5.77714 10.3122 5.77714 10.0258 5.873 9.765C5.98133 9.51285 6.18103 9.31102 6.432 9.2C6.55634 9.14799 6.69026 9.12278 6.825 9.126C7.00597 9.12016 7.18499 9.16483 7.342 9.255C7.50089 9.34662 7.63189 9.47969 7.721 9.64C7.81156 9.80276 7.85733 9.98662 7.85364 10.1728C7.84995 10.3591 7.79693 10.541 7.7 10.7C7.60749 10.8547 7.47924 10.985 7.326 11.08C7.17594 11.173 7.00256 11.2216 6.826 11.22L6.825 11.216ZM2.593 0H11.773C12.0693 0.00149805 12.3623 0.0623545 12.6347 0.178976C12.9071 0.295597 13.1534 0.465618 13.359 0.679L13.4 0.724C13.5857 0.932416 13.7342 1.17123 13.839 1.43C13.9536 1.71614 14.0117 2.02177 14.01 2.33V13.316C14.0135 13.9197 13.778 14.5003 13.355 14.931C13.1494 15.1444 12.9031 15.3144 12.6307 15.431C12.3583 15.5476 12.0653 15.6085 11.769 15.61H11.224L11.044 17.7C11.0338 17.8314 10.9874 17.9574 10.91 18.064C10.8341 18.1688 10.7301 18.2499 10.61 18.298C10.4905 18.3452 10.3599 18.3567 10.234 18.331C10.1072 18.3051 9.9906 18.2434 9.898 18.153L6.855 15.628H2.246C1.9494 15.6247 1.65653 15.5614 1.385 15.442C1.11144 15.3216 0.864624 15.1479 0.659 14.931L0.619 14.886C0.430997 14.6793 0.282234 14.44 0.18 14.18C0.0667724 13.9057 0.00572743 13.6127 0 13.316L0 2.316C0.00012742 2.01248 0.0581651 1.71177 0.171 1.43C0.285293 1.15136 0.450819 0.896628 0.659 0.679C0.864718 0.465498 1.11115 0.295407 1.38374 0.178782C1.65632 0.0621564 1.94952 0.0013646 2.246 0L2.593 0ZM11.773 1.407H2.246C2.13113 1.40596 2.01732 1.42913 1.912 1.475C1.69491 1.57035 1.52421 1.74751 1.437 1.968C1.39233 2.07713 1.36989 2.19408 1.371 2.312V13.312C1.36992 13.4299 1.39235 13.5469 1.437 13.656C1.47629 13.7534 1.53136 13.8436 1.6 13.923L1.631 13.95C1.71237 14.0347 1.80953 14.1026 1.917 14.15C2.02332 14.192 2.13668 14.2134 2.251 14.213H6.957C7.09901 14.214 7.2394 14.2432 7.37 14.299C7.49577 14.3548 7.61031 14.4331 7.708 14.53L9.808 16.281L9.887 15.331C9.8878 15.0643 9.98271 14.8065 10.155 14.603C10.3326 14.394 10.5826 14.2597 10.855 14.227H11.773C11.8895 14.23 12.0053 14.2076 12.1123 14.1615C12.2193 14.1154 12.3151 14.0467 12.393 13.96C12.4764 13.8764 12.5421 13.7768 12.5859 13.6671C12.6297 13.5575 12.6509 13.4401 12.648 13.322V2.312C12.6482 2.19453 12.6272 2.07799 12.586 1.968C12.5453 1.87046 12.4889 1.78027 12.419 1.701L12.393 1.674C12.312 1.58885 12.2148 1.52083 12.107 1.474C12.0016 1.42848 11.8878 1.40565 11.773 1.407ZM45.11 11.981V11.8C45.1016 11.4689 45.1324 11.1379 45.202 10.814C45.2521 10.5954 45.3497 10.3905 45.488 10.214C45.6162 10.062 45.7638 9.92751 45.927 9.814C46.081 9.714 46.221 9.606 46.366 9.506C46.4794 9.4205 46.5775 9.31635 46.656 9.198C46.7293 9.08642 46.7676 8.95549 46.766 8.822C46.7678 8.70439 46.7374 8.58854 46.678 8.487C46.6209 8.39262 46.5389 8.31581 46.441 8.265C46.3372 8.21362 46.2228 8.18725 46.107 8.188C45.9801 8.18769 45.8556 8.22229 45.747 8.288C45.6344 8.34605 45.5413 8.43573 45.479 8.546C45.4091 8.66196 45.3744 8.7957 45.379 8.931H43.506C43.4867 8.45205 43.614 7.97862 43.871 7.574C44.1081 7.23519 44.44 6.97394 44.825 6.823C45.244 6.65605 45.6921 6.57445 46.143 6.583C46.6202 6.57392 47.0949 6.65361 47.543 6.818C47.9274 6.95591 48.2643 7.20088 48.514 7.524C48.7551 7.86761 48.8777 8.28048 48.863 8.7C48.8692 8.9741 48.8184 9.2465 48.714 9.5C48.6088 9.72707 48.4596 9.931 48.275 10.1C48.0869 10.2843 47.8774 10.4454 47.651 10.58C47.4923 10.6709 47.3449 10.7803 47.212 10.906C47.0947 11.0115 47.0015 11.1411 46.939 11.286C46.8772 11.4491 46.8473 11.6226 46.851 11.797V11.978L45.11 11.981ZM45.989 14.51C45.8537 14.5123 45.7195 14.4861 45.595 14.433C45.3437 14.3195 45.1442 14.1157 45.036 13.862C44.9846 13.733 44.9605 13.5948 44.965 13.456C44.9615 13.3191 44.9864 13.1829 45.038 13.056C45.0891 12.9304 45.1661 12.8169 45.264 12.723C45.3844 12.6078 45.5309 12.5234 45.6909 12.4769C45.8509 12.4304 46.0198 12.4231 46.1832 12.4558C46.3466 12.4885 46.4998 12.5601 46.6296 12.6646C46.7594 12.7691 46.8621 12.9034 46.929 13.056C46.9834 13.1824 47.012 13.3184 47.013 13.456C47.0116 13.6441 46.9602 13.8284 46.864 13.99C46.7715 14.1447 46.6432 14.275 46.49 14.37C46.3397 14.4632 46.1659 14.5118 45.989 14.51ZM50.572 4.868H41.405C41.2901 4.86699 41.1763 4.89016 41.071 4.936C40.9633 4.9829 40.866 5.05091 40.785 5.136L40.754 5.163C40.6012 5.33074 40.5195 5.55121 40.526 5.778V15.044C40.525 15.1627 40.5457 15.2807 40.587 15.392C40.6339 15.5004 40.6992 15.5999 40.78 15.686C40.861 15.7711 40.9582 15.8391 41.066 15.886C41.1713 15.9319 41.2851 15.9551 41.4 15.954H42.318C42.5909 15.9849 42.8415 16.1195 43.018 16.33C43.1912 16.5314 43.2863 16.7884 43.286 17.054L43.365 18.009L45.465 16.29C45.5618 16.1932 45.6766 16.1165 45.803 16.064C45.9337 16.0087 46.074 15.9795 46.216 15.978H50.927C51.0419 15.979 51.1557 15.9558 51.261 15.91C51.3688 15.8631 51.466 15.7951 51.547 15.71L51.578 15.683C51.7288 15.5137 51.8118 15.2947 51.811 15.068V5.778C51.8103 5.65895 51.788 5.54103 51.745 5.43C51.697 5.32221 51.6318 5.22292 51.552 5.136C51.471 5.05091 51.3737 4.9829 51.266 4.936C51.1607 4.89016 51.0469 4.86699 50.932 4.868H50.572ZM41.405 3.461H50.932C51.2271 3.46172 51.5188 3.52333 51.789 3.642C52.0629 3.75842 52.3107 3.92842 52.518 4.142C52.7284 4.35726 52.8946 4.61174 53.007 4.891C53.1205 5.17222 53.1786 5.47274 53.178 5.776V15.042C53.1833 15.6351 52.9652 16.2084 52.567 16.648L52.523 16.698C52.3113 16.9067 52.0623 17.074 51.789 17.191C51.518 17.3064 51.2266 17.3663 50.932 17.367H46.322L43.277 19.905C43.1679 20.0154 43.0227 20.0829 42.868 20.095C42.7783 20.1037 42.6877 20.0938 42.602 20.066C42.5158 20.0379 42.4362 19.9927 42.368 19.933C42.2989 19.8727 42.2425 19.7993 42.202 19.717C42.1611 19.6342 42.1366 19.5442 42.13 19.452L41.95 17.362H41.405C41.103 17.3643 40.8038 17.3044 40.526 17.186C40.2536 17.0663 40.006 16.8968 39.796 16.686C39.5856 16.4707 39.4194 16.2163 39.307 15.937C39.1935 15.6558 39.1354 15.3553 39.136 15.052V5.778C39.1307 5.18493 39.3488 4.61159 39.747 4.172L39.791 4.127C39.9983 3.91342 40.2461 3.74342 40.52 3.627C40.7969 3.5053 41.0965 3.44362 41.399 3.446L41.405 3.461ZM26.956 2.981C28.7132 2.98209 30.4286 3.51705 31.875 4.515C33.3407 5.52769 34.4753 6.94996 35.137 8.604C35.8063 10.2748 35.9799 12.1031 35.637 13.87C35.3009 15.6282 34.4592 17.2501 33.215 18.537C31.989 19.8051 30.4093 20.6742 28.682 21.031C26.9638 21.3823 25.1793 21.2009 23.567 20.511C21.9405 19.811 20.5595 18.6423 19.6 17.154C18.4632 15.3928 17.9534 13.2997 18.153 11.213C18.3526 9.12627 19.2499 7.16779 20.7 5.654C21.5107 4.81233 22.4822 4.1421 23.5568 3.6831C24.6315 3.2241 25.7874 2.98568 26.956 2.982V2.981Z" fill="white"/>
</svg>
