<svg xmlns="http://www.w3.org/2000/svg" width="40.711" height="54" viewBox="0 0 40.711 54">
  <g id="Group_98" data-name="Group 98" transform="translate(-63)">
    <path id="Path_51" data-name="Path 51" d="M102.129,91h-1.587v4.771a4.613,4.613,0,0,1-1.391,3.3,4.77,4.77,0,0,1-3.356,1.368H70.906a4.771,4.771,0,0,1-3.356-1.368,4.614,4.614,0,0,1-1.391-3.3V91H64.582A1.569,1.569,0,0,0,63,92.556v40.557a1.569,1.569,0,0,0,1.582,1.556h37.547a1.569,1.569,0,0,0,1.582-1.556V92.556A1.569,1.569,0,0,0,102.129,91ZM81.088,131.557H70.91a1.556,1.556,0,1,1,0-3.112H81.088a1.556,1.556,0,1,1,0,3.112Zm10.6-6.224H70.91a1.556,1.556,0,1,1,0-3.112H91.688a1.556,1.556,0,1,1,0,3.112ZM95.8,119.11H70.91a1.556,1.556,0,1,1,0-3.112H95.8a1.556,1.556,0,1,1,0,3.112ZM69.328,111.33a1.569,1.569,0,0,1,1.582-1.556H87.258a1.556,1.556,0,1,1,0,3.112H70.91A1.569,1.569,0,0,1,69.328,111.33ZM95.8,106.663H70.91a1.556,1.556,0,1,1,0-3.112H95.8a1.556,1.556,0,1,1,0,3.112Z" transform="translate(0 -80.669)" fill="#fff" fill-rule="evenodd"/>
    <path id="Path_52" data-name="Path 52" d="M124.488,17.256h24.032a1.623,1.623,0,0,0,1.527-1.7V8.628a1.623,1.623,0,0,0-1.527-1.7h-4.857a8.414,8.414,0,0,0-2.047-4.564,6.716,6.716,0,0,0-10.225,0,8.414,8.414,0,0,0-2.047,4.564h-4.857a1.622,1.622,0,0,0-1.527,1.7v6.925A1.623,1.623,0,0,0,124.488,17.256ZM136.427,5.79h.155a1.622,1.622,0,0,1,1.527,1.7,1.622,1.622,0,0,1-1.527,1.7h-.155a1.622,1.622,0,0,1-1.527-1.7A1.622,1.622,0,0,1,136.427,5.79Z" transform="translate(-53.154 0)" fill="#fff" fill-rule="evenodd"/>
  </g>
</svg>
