<svg xmlns="http://www.w3.org/2000/svg" width="50" height="44.681" viewBox="0 0 50 44.681">
  <path id="Vector" d="M16.492,22.313a36.732,36.732,0,0,1,17.647,0,2.211,2.211,0,0,1,1.355.838,2.159,2.159,0,0,1,.305.419l4,5.756,2.441-6.913a2.18,2.18,0,0,1,.956-1.349l2.734-2.095a.649.649,0,0,1,.492-.129.66.66,0,0,1,.436.267.689.689,0,0,1,.111.239.7.7,0,0,1-.073.515.673.673,0,0,1-.173.2l-1.6,1.232c.142.059.289.121.431.193l1.75-1.177a.5.5,0,0,1,.382-.075.509.509,0,0,1,.322.225.541.541,0,0,1,.073.4.528.528,0,0,1-.219.333l-.887.6h2.283a.725.725,0,0,1,.517.222.762.762,0,0,1,0,1.063.722.722,0,0,1-.516.219H47.29a5.7,5.7,0,0,1-.321.838L42.725,36.75a2.567,2.567,0,0,1-.816,1.169,2.436,2.436,0,0,1-2.672.263,2.527,2.527,0,0,1-1.017-.988L34.391,31.14c-.586,3.8-1.1,10.009-2.034,13.54H18.27C17.3,41,16.756,34.58,16.146,30.617L12,37.194a2.527,2.527,0,0,1-1.016.988,2.436,2.436,0,0,1-2.672-.263,2.567,2.567,0,0,1-.816-1.169L3.255,24.14A6.192,6.192,0,0,1,2.93,23.3H.936a.715.715,0,0,1-.281-.059.733.733,0,0,1-.237-.166.756.756,0,0,1-.157-.247.786.786,0,0,1,.16-.822.722.722,0,0,1,.515-.222H3.219l-.891-.6a.528.528,0,0,1-.222-.332.541.541,0,0,1,.071-.4.516.516,0,0,1,.324-.224.5.5,0,0,1,.384.073l1.75,1.177c.142-.071.289-.134.431-.193l-1.6-1.232a.672.672,0,0,1-.172-.2.695.695,0,0,1,.041-.753.667.667,0,0,1,.191-.178.647.647,0,0,1,.243-.089.64.64,0,0,1,.257.014.653.653,0,0,1,.232.114L7,21.061a2.192,2.192,0,0,1,.956,1.349L10.4,29.322,14.4,23.557a2.681,2.681,0,0,1,.872-.877,2.589,2.589,0,0,1,1.162-.38h.041ZM5.505,8.044V7.88a3.912,3.912,0,0,1,.085-.917,1.4,1.4,0,0,1,.264-.549,2,2,0,0,1,.407-.377c.142-.1.273-.189.407-.281a1.242,1.242,0,0,0,.269-.289.6.6,0,0,0,.1-.348.578.578,0,0,0-.081-.306.564.564,0,0,0-.22-.209.687.687,0,0,0-.309-.071.651.651,0,0,0-.326.075.659.659,0,0,0-.342.595H4.02a2.18,2.18,0,0,1,.338-1.257,1.943,1.943,0,0,1,.883-.679,3.1,3.1,0,0,1,1.2-.226,3.567,3.567,0,0,1,1.29.218,2.012,2.012,0,0,1,.9.654,1.8,1.8,0,0,1,.321,1.114,1.72,1.72,0,0,1-.125.712,1.677,1.677,0,0,1-.4.591,3.041,3.041,0,0,1-.578.419,2.143,2.143,0,0,0-.407.3,1.1,1.1,0,0,0-.252.352A1.29,1.29,0,0,0,7.1,7.88v.163Zm.814,2.342a.888.888,0,0,1-.364-.069,1,1,0,0,1-.518-.527,1.084,1.084,0,0,1,0-.748,1.007,1.007,0,0,1,.517-.523.888.888,0,0,1,.364-.069A.9.9,0,0,1,6.8,8.57a.937.937,0,0,1,.351.356.975.975,0,0,1-.017.978,1.045,1.045,0,0,1-.346.352.864.864,0,0,1-.464.13ZM2.4,0h8.5A2.054,2.054,0,0,1,12.37.628l.041.042a2.254,2.254,0,0,1,.407.654,2.209,2.209,0,0,1,.159.838V12.33a2.117,2.117,0,0,1-.606,1.5,2.053,2.053,0,0,1-1.469.628h-.5l-.167,1.936a.66.66,0,0,1-.124.337.633.633,0,0,1-.279.217.614.614,0,0,1-.348.031.624.624,0,0,1-.311-.165l-2.82-2.338H2.079a2.033,2.033,0,0,1-.8-.172,2.081,2.081,0,0,1-.672-.473l-.037-.042a2.133,2.133,0,0,1-.407-.654A2.208,2.208,0,0,1,0,12.33V2.141a2.209,2.209,0,0,1,.159-.817A2.23,2.23,0,0,1,.61.628,2.054,2.054,0,0,1,2.079,0Zm8.5,1.3H2.079a.758.758,0,0,0-.309.063.831.831,0,0,0-.439.457.821.821,0,0,0-.061.318V12.33a.821.821,0,0,0,.061.318.884.884,0,0,0,.151.247l.028.025a.833.833,0,0,0,.264.189.833.833,0,0,0,.309.059H6.441a.992.992,0,0,1,.382.08,1.048,1.048,0,0,1,.313.214l1.941,1.621.073-.88a1.048,1.048,0,0,1,.248-.674,1.008,1.008,0,0,1,.651-.348h.85a.746.746,0,0,0,.574-.247.808.808,0,0,0,.236-.591V2.141a.9.9,0,0,0-.057-.318.894.894,0,0,0-.155-.247l-.024-.025a.812.812,0,0,0-.264-.184A.758.758,0,0,0,10.9,1.3Zm30.868,9.791v-.168a3.878,3.878,0,0,1,.085-.913,1.412,1.412,0,0,1,.264-.553,2.1,2.1,0,0,1,.407-.373c.142-.1.273-.193.407-.285a1.161,1.161,0,0,0,.269-.285.621.621,0,0,0,.1-.348.6.6,0,0,0-.081-.31A.555.555,0,0,0,43,7.654a.687.687,0,0,0-.309-.071.64.64,0,0,0-.334.088.6.6,0,0,0-.248.239.647.647,0,0,0-.094.356H40.283a2.179,2.179,0,0,1,.338-1.257,1.945,1.945,0,0,1,.883-.7,3.136,3.136,0,0,1,1.221-.222,3.567,3.567,0,0,1,1.294.218,1.983,1.983,0,0,1,.9.654,1.787,1.787,0,0,1,.326,1.093A1.836,1.836,0,0,1,45.1,8.8a1.752,1.752,0,0,1-.407.557,3.061,3.061,0,0,1-.578.444,2.139,2.139,0,0,0-.407.3,1.013,1.013,0,0,0-.252.352,1.261,1.261,0,0,0-.081.473v.168Zm.814,2.342a.891.891,0,0,1-.364-.071,1.016,1.016,0,0,1-.518-.529.933.933,0,0,1-.066-.376.92.92,0,0,1,.068-.37.9.9,0,0,1,.209-.309.959.959,0,0,1,1.542.308.954.954,0,0,1,.078.371.982.982,0,0,1-.138.494,1.044,1.044,0,0,1-.346.352A.864.864,0,0,1,42.582,13.436Zm4.244-8.928H38.338a.758.758,0,0,0-.309.063.815.815,0,0,0-.264.184l-.029.025a.811.811,0,0,0-.211.57v8.58a.906.906,0,0,0,.057.323.949.949,0,0,0,.179.272.813.813,0,0,0,.264.184.756.756,0,0,0,.309.063h.85a.992.992,0,0,1,.651.348,1.027,1.027,0,0,1,.248.67l.073.884L42.1,15.082a.967.967,0,0,1,.313-.209,1.009,1.009,0,0,1,.383-.08H47.16a.759.759,0,0,0,.309-.063.813.813,0,0,0,.264-.184l.029-.025a.852.852,0,0,0,.216-.57V5.35a.907.907,0,0,0-.061-.323,1.01,1.01,0,0,0-.179-.272.815.815,0,0,0-.264-.184.758.758,0,0,0-.309-.063ZM38.338,3.2H47.16a1.985,1.985,0,0,1,.794.168,2.068,2.068,0,0,1,.675.465,2.128,2.128,0,0,1,.452.693,2.179,2.179,0,0,1,.158.819v8.58a2.186,2.186,0,0,1-.566,1.487l-.041.046a2.2,2.2,0,0,1-.679.457,2.039,2.039,0,0,1-.794.163H42.891l-2.82,2.35a.6.6,0,0,1-.378.176.609.609,0,0,1-.246-.027.623.623,0,0,1-.217-.123.642.642,0,0,1-.154-.2.661.661,0,0,1-.067-.246l-.167-1.936h-.5a2.039,2.039,0,0,1-.814-.163,2.207,2.207,0,0,1-.676-.465,2.131,2.131,0,0,1-.452-.693,2.179,2.179,0,0,1-.158-.819V5.35A2.186,2.186,0,0,1,36.8,3.863l.041-.042a2.068,2.068,0,0,1,.675-.465,1.984,1.984,0,0,1,.814-.168ZM24.959,2.761a8.028,8.028,0,0,1,4.554,1.42,8.39,8.39,0,0,1,3.02,3.786A8.67,8.67,0,0,1,33,12.844a8.518,8.518,0,0,1-2.243,4.321,8.124,8.124,0,0,1-4.2,2.309,7.977,7.977,0,0,1-4.736-.481,8.252,8.252,0,0,1-3.678-3.109A8.629,8.629,0,0,1,19.169,5.232,8.077,8.077,0,0,1,24.959,2.761Z" fill="#333" fill-rule="evenodd"/>
</svg>
